<?xml version="1.0" encoding="utf-8"?>
<svg version="1.1" xmlns:xlink="http://www.w3.org/1999/xlink" width="415px" height="121px" xmlns="http://www.w3.org/2000/svg">
  <g transform="matrix(1 0 0 1 -480 -1884 )">
    <path d="M 481 1888  A 3 3 0 0 1 484 1885 L 891 1885  A 3 3 0 0 1 894 1888 L 894 2001  A 3 3 0 0 1 891 2004 L 484 2004  A 3 3 0 0 1 481 2001 L 481 1888  Z " fill-rule="nonzero" fill="#dbdbdb" stroke="none" />
    <path d="M 480.5 1888  A 3.5 3.5 0 0 1 484 1884.5 L 891 1884.5  A 3.5 3.5 0 0 1 894.5 1888 L 894.5 2001  A 3.5 3.5 0 0 1 891 2004.5 L 484 2004.5  A 3.5 3.5 0 0 1 480.5 2001 L 480.5 1888  Z " stroke-width="1" stroke-dasharray="9,4" stroke="#848484" fill="none" stroke-dashoffset="0.5" />
  </g>
</svg>