<?xml version="1.0" encoding="utf-8"?>
<svg version="1.1" xmlns:xlink="http://www.w3.org/1999/xlink" width="18px" height="18px" preserveAspectRatio="xMinYMid meet" viewBox="388 1356  18 16" xmlns="http://www.w3.org/2000/svg">
  <path d="M 395 1364.5  L 469.5 1364.5  A 0.5 0.5 0 0 1 470.5 1365 A 0.5 0.5 0 0 0 471 1365.5 L 479 1365.5  " stroke-width="1" stroke-dasharray="9,4" stroke="#848484" fill="none" />
  <path d="M 397 1361.5  A 3 3 0 0 0 394 1364.5 A 3 3 0 0 0 397 1367.5 A 3 3 0 0 0 400 1364.5 A 3 3 0 0 0 397 1361.5 Z M 473.3 1371.5  L 480 1365.5  L 473.3 1359.5  L 475.6 1365.5  L 473.3 1371.5  Z " fill-rule="nonzero" fill="#848484" stroke="none" />
</svg>