<?xml version="1.0" encoding="utf-8"?>
<svg version="1.1" xmlns:xlink="http://www.w3.org/1999/xlink" width="18px" height="18px" preserveAspectRatio="xMinYMid meet" viewBox="1762 277  18 16" xmlns="http://www.w3.org/2000/svg">
  <path d="M 1773 285.5  L 1585 285.5  A 5 5 0 0 1 1580.5 280.5 L 1580.5 197  A 5 5 0 0 0 1575.5 192.5 L 1104 192.5  " stroke-width="1" stroke-dasharray="9,4" stroke="#df3838" fill="none" />
  <path d="M 1771 282.5  A 3 3 0 0 0 1768 285.5 A 3 3 0 0 0 1771 288.5 A 3 3 0 0 0 1774 285.5 A 3 3 0 0 0 1771 282.5 Z M 1109.7 186.5  L 1103 192.5  L 1109.7 198.5  L 1107.4 192.5  L 1109.7 186.5  Z " fill-rule="nonzero" fill="#df3838" stroke="none" />
</svg>