<?xml version="1.0" encoding="utf-8"?>
<svg version="1.1" xmlns:xlink="http://www.w3.org/1999/xlink" width="390px" height="100px" xmlns="http://www.w3.org/2000/svg">
  <g transform="matrix(1 0 0 1 -476 -118 )">
    <path d="M 477 122  A 3 3 0 0 1 480 119 L 862 119  A 3 3 0 0 1 865 122 L 865 214  A 3 3 0 0 1 862 217 L 480 217  A 3 3 0 0 1 477 214 L 477 122  Z " fill-rule="nonzero" fill="#dbdbdb" stroke="none" />
    <path d="M 476.5 122  A 3.5 3.5 0 0 1 480 118.5 L 862 118.5  A 3.5 3.5 0 0 1 865.5 122 L 865.5 214  A 3.5 3.5 0 0 1 862 217.5 L 480 217.5  A 3.5 3.5 0 0 1 476.5 214 L 476.5 122  Z " stroke-width="1" stroke-dasharray="9,4" stroke="#848484" fill="none" stroke-dashoffset="0.5" />
  </g>
</svg>