<?xml version="1.0" encoding="utf-8"?>
<svg version="1.1" xmlns:xlink="http://www.w3.org/1999/xlink" width="10px" height="9px" xmlns="http://www.w3.org/2000/svg">
  <g transform="matrix(1 0 0 1 -963 -120 )">
    <path d="M 9.775390625 5.3056640625  C 9.81662326388889 5.3427734375  9.83723958333333 5.38671875  9.83723958333333 5.4375  C 9.83723958333333 5.45703125  9.83506944444444 5.470703125  9.83072916666667 5.478515625  C 9.55295138888889 6.525390625  8.97135416666667 7.3740234375  8.0859375 8.0244140625  C 7.20052083333333 8.6748046875  6.16319444444445 9  4.97395833333333 9  C 4.34027777777778 9  3.72721354166667 8.892578125  3.134765625 8.677734375  C 2.54231770833333 8.462890625  2.01388888888889 8.15625  1.54947916666667 7.7578125  L 0.709635416666667 8.513671875  C 0.627170138888889 8.587890625  0.529513888888889 8.625  0.416666666666667 8.625  C 0.303819444444444 8.625  0.206163194444444 8.587890625  0.123697916666667 8.513671875  C 0.0412326388888889 8.439453125  0 8.3515625  0 8.25  L 0 5.625  C 0 5.5234375  0.0412326388888889 5.435546875  0.123697916666667 5.361328125  C 0.206163194444444 5.287109375  0.303819444444444 5.25  0.416666666666667 5.25  L 3.33333333333333 5.25  C 3.44618055555556 5.25  3.54383680555556 5.287109375  3.62630208333333 5.361328125  C 3.70876736111111 5.435546875  3.75 5.5234375  3.75 5.625  C 3.75 5.7265625  3.70876736111111 5.814453125  3.62630208333333 5.888671875  L 2.734375 6.69140625  C 3.04253472222222 6.94921875  3.39192708333333 7.1484375  3.78255208333333 7.2890625  C 4.17317708333333 7.4296875  4.57899305555556 7.5  5 7.5  C 5.58159722222222 7.5  6.12413194444445 7.373046875  6.62760416666667 7.119140625  C 7.13107638888889 6.865234375  7.53472222222222 6.515625  7.83854166666667 6.0703125  C 7.88628472222222 6.00390625  8.00130208333333 5.775390625  8.18359375 5.384765625  C 8.21831597222222 5.294921875  8.28342013888889 5.25  8.37890625 5.25  L 9.62890625 5.25  C 9.68532986111111 5.25  9.73415798611111 5.2685546875  9.775390625 5.3056640625  Z M 9.87630208333333 0.486328125  C 9.95876736111111 0.560546874999999  10 0.648437499999999  10 0.75  L 10 3.375  C 10 3.4765625  9.95876736111111 3.564453125  9.87630208333333 3.638671875  C 9.79383680555556 3.712890625  9.69618055555556 3.75  9.58333333333333 3.75  L 6.66666666666667 3.75  C 6.55381944444445 3.75  6.45616319444445 3.712890625  6.37369791666667 3.638671875  C 6.29123263888889 3.564453125  6.25 3.4765625  6.25 3.375  C 6.25 3.2734375  6.29123263888889 3.185546875  6.37369791666667 3.111328125  L 7.27213541666667 2.302734375  C 6.62977430555556 1.767578125  5.87239583333333 1.5  5 1.5  C 4.41840277777778 1.5  3.87586805555556 1.626953125  3.37239583333333 1.880859375  C 2.86892361111111 2.134765625  2.46527777777778 2.484375  2.16145833333333 2.9296875  C 2.11371527777778 2.99609375  1.99869791666667 3.224609375  1.81640625 3.615234375  C 1.78168402777778 3.705078125  1.71657986111111 3.75  1.62109375 3.75  L 0.325520833333333 3.75  C 0.269097222222222 3.75  0.220269097222222 3.7314453125  0.179036458333333 3.6943359375  C 0.137803819444444 3.6572265625  0.1171875 3.61328125  0.1171875 3.5625  L 0.1171875 3.521484375  C 0.399305555555556 2.474609375  0.985243055555556 1.6259765625  1.875 0.9755859375  C 2.76475694444444 0.3251953125  3.80642361111111 0  5 0  C 5.63368055555556 0  6.25 0.1083984375  6.84895833333333 0.3251953125  C 7.44791666666667 0.5419921875  7.97960069444445 0.847656249999999  8.44401041666667 1.2421875  L 9.29036458333333 0.486328125  C 9.37282986111111 0.412109374999999  9.47048611111111 0.375  9.58333333333333 0.375  C 9.69618055555556 0.375  9.79383680555556 0.412109374999999  9.87630208333333 0.486328125  Z " fill-rule="nonzero" fill="#5e5656" stroke="none" transform="matrix(1 0 0 1 963 120 )" />
  </g>
</svg>