<?xml version="1.0" encoding="utf-8"?>
<svg version="1.1" xmlns:xlink="http://www.w3.org/1999/xlink" width="141px" height="10px" preserveAspectRatio="xMinYMid meet" viewBox="1601 183  141 8" xmlns="http://www.w3.org/2000/svg">
  <path d="M 1602 187.5  L 1732 187.5  A 5 5 0 0 1 1737.5 192.5 L 1737.5 326  A 5 5 0 0 0 1742.5 331.5 L 1773 331.5  " stroke-width="1" stroke-dasharray="9,4" stroke="#df3838" fill="none" />
  <path d="M 1604 184.5  A 3 3 0 0 0 1601 187.5 A 3 3 0 0 0 1604 190.5 A 3 3 0 0 0 1607 187.5 A 3 3 0 0 0 1604 184.5 Z M 1767.3 337.5  L 1774 331.5  L 1767.3 325.5  L 1769.6 331.5  L 1767.3 337.5  Z " fill-rule="nonzero" fill="#df3838" stroke="none" />
</svg>