<?xml version="1.0" encoding="utf-8"?>
<svg version="1.1" xmlns:xlink="http://www.w3.org/1999/xlink" width="66px" height="35px" viewBox="717 473  66 35" xmlns="http://www.w3.org/2000/svg">
  <path d="M 718 476  A 2 2 0 0 1 720 474 L 780 474  A 2 2 0 0 1 782 476 L 782 505  A 2 2 0 0 1 780 507 L 720 507  A 2 2 0 0 1 718 505 L 718 476  Z " fill-rule="nonzero" fill="#f0f0f0" stroke="none" />
  <path d="M 717.5 476  A 2.5 2.5 0 0 1 720 473.5 L 780 473.5  A 2.5 2.5 0 0 1 782.5 476 L 782.5 505  A 2.5 2.5 0 0 1 780 507.5 L 720 507.5  A 2.5 2.5 0 0 1 717.5 505 L 717.5 476  Z " stroke-width="1" stroke="#2e2e2e" fill="none" stroke-opacity="0.262745098039216" />
</svg>