<?xml version="1.0" encoding="utf-8"?>
<svg version="1.1" xmlns:xlink="http://www.w3.org/1999/xlink" width="72px" height="35px" xmlns="http://www.w3.org/2000/svg">
  <g transform="matrix(1 0 0 1 -891 -473 )">
    <path d="M 892 476  A 2 2 0 0 1 894 474 L 960 474  A 2 2 0 0 1 962 476 L 962 505  A 2 2 0 0 1 960 507 L 894 507  A 2 2 0 0 1 892 505 L 892 476  Z " fill-rule="nonzero" fill="#ffffff" stroke="none" />
    <path d="M 891.5 476  A 2.5 2.5 0 0 1 894 473.5 L 960 473.5  A 2.5 2.5 0 0 1 962.5 476 L 962.5 505  A 2.5 2.5 0 0 1 960 507.5 L 894 507.5  A 2.5 2.5 0 0 1 891.5 505 L 891.5 476  Z " stroke-width="1" stroke="#2e2e2e" fill="none" stroke-opacity="0.262745098039216" />
  </g>
</svg>