<?xml version="1.0" encoding="utf-8"?>
<svg version="1.1" xmlns:xlink="http://www.w3.org/1999/xlink" width="400px" height="35px" xmlns="http://www.w3.org/2000/svg">
  <g transform="matrix(1 0 0 1 -717 -120 )">
    <path d="M 718 123  A 2 2 0 0 1 720 121 L 1114 121  A 2 2 0 0 1 1116 123 L 1116 152  A 2 2 0 0 1 1114 154 L 720 154  A 2 2 0 0 1 718 152 L 718 123  Z " fill-rule="nonzero" fill="#ffffff" stroke="none" />
    <path d="M 717.5 123  A 2.5 2.5 0 0 1 720 120.5 L 1114 120.5  A 2.5 2.5 0 0 1 1116.5 123 L 1116.5 152  A 2.5 2.5 0 0 1 1114 154.5 L 720 154.5  A 2.5 2.5 0 0 1 717.5 152 L 717.5 123  Z " stroke-width="1" stroke="#2e2e2e" fill="none" stroke-opacity="0.262745098039216" />
  </g>
</svg>