<?xml version="1.0" encoding="utf-8"?>
<svg version="1.1" xmlns:xlink="http://www.w3.org/1999/xlink" width="400px" height="35px" viewBox="717 290  400 35" xmlns="http://www.w3.org/2000/svg">
  <path d="M 718 293  A 2 2 0 0 1 720 291 L 1114 291  A 2 2 0 0 1 1116 293 L 1116 322  A 2 2 0 0 1 1114 324 L 720 324  A 2 2 0 0 1 718 322 L 718 293  Z " fill-rule="nonzero" fill="#ffffff" stroke="none" />
  <path d="M 717.5 293  A 2.5 2.5 0 0 1 720 290.5 L 1114 290.5  A 2.5 2.5 0 0 1 1116.5 293 L 1116.5 322  A 2.5 2.5 0 0 1 1114 324.5 L 720 324.5  A 2.5 2.5 0 0 1 717.5 322 L 717.5 293  Z " stroke-width="1" stroke="#2e2e2e" fill="none" stroke-opacity="0.262745098039216" />
</svg>