<?xml version="1.0" encoding="utf-8"?>
<svg version="1.1" xmlns:xlink="http://www.w3.org/1999/xlink" width="120px" height="25px" xmlns="http://www.w3.org/2000/svg">
  <g transform="matrix(1 0 0 1 -174 -112 )">
    <path d="M 175 115  A 2 2 0 0 1 177 113 L 291 113  A 2 2 0 0 1 293 115 L 293 134  A 2 2 0 0 1 291 136 L 177 136  A 2 2 0 0 1 175 134 L 175 115  Z " fill-rule="nonzero" fill="#ffffff" stroke="none" />
    <path d="M 174.5 115  A 2.5 2.5 0 0 1 177 112.5 L 291 112.5  A 2.5 2.5 0 0 1 293.5 115 L 293.5 134  A 2.5 2.5 0 0 1 291 136.5 L 177 136.5  A 2.5 2.5 0 0 1 174.5 134 L 174.5 115  Z " stroke-width="1" stroke="#2e2e2e" fill="none" stroke-opacity="0.262745098039216" />
  </g>
</svg>