<?xml version="1.0" encoding="utf-8"?>
<svg version="1.1" xmlns:xlink="http://www.w3.org/1999/xlink" width="120px" height="25px" viewBox="624 112  120 25" xmlns="http://www.w3.org/2000/svg">
  <path d="M 625 115  A 2 2 0 0 1 627 113 L 741 113  A 2 2 0 0 1 743 115 L 743 134  A 2 2 0 0 1 741 136 L 627 136  A 2 2 0 0 1 625 134 L 625 115  Z " fill-rule="nonzero" fill="#ffffff" stroke="none" />
  <path d="M 624.5 115  A 2.5 2.5 0 0 1 627 112.5 L 741 112.5  A 2.5 2.5 0 0 1 743.5 115 L 743.5 134  A 2.5 2.5 0 0 1 741 136.5 L 627 136.5  A 2.5 2.5 0 0 1 624.5 134 L 624.5 115  Z " stroke-width="1" stroke="#2e2e2e" fill="none" stroke-opacity="0.262745098039216" />
</svg>