<?xml version="1.0" encoding="utf-8"?>
<svg version="1.1" xmlns:xlink="http://www.w3.org/1999/xlink" width="10px" height="13px" xmlns="http://www.w3.org/2000/svg">
  <g transform="matrix(1 0 0 1 -1035 -119 )">
    <path d="M 9.775390625 7.66373697916667  C 9.81662326388889 7.71733940972222  9.83723958333333 7.78081597222222  9.83723958333333 7.85416666666667  C 9.83723958333333 7.88237847222222  9.83506944444444 7.90212673611111  9.83072916666667 7.91341145833333  C 9.55295138888889 9.42556423611111  8.97135416666667 10.6513671875  8.0859375 11.5908203125  C 7.20052083333333 12.5302734375  6.16319444444445 13  4.97395833333333 13  C 4.34027777777778 13  3.72721354166667 12.8448350694444  3.134765625 12.5345052083333  C 2.54231770833333 12.2241753472222  2.01388888888889 11.78125  1.54947916666667 11.2057291666667  L 0.709635416666667 12.2975260416667  C 0.627170138888889 12.4047309027778  0.529513888888889 12.4583333333333  0.416666666666667 12.4583333333333  C 0.303819444444444 12.4583333333333  0.206163194444444 12.4047309027778  0.123697916666667 12.2975260416667  C 0.0412326388888889 12.1903211805556  0 12.0633680555556  0 11.9166666666667  L 0 8.125  C 0 7.97829861111111  0.0412326388888889 7.85134548611111  0.123697916666667 7.744140625  C 0.206163194444444 7.63693576388889  0.303819444444444 7.58333333333333  0.416666666666667 7.58333333333333  L 3.33333333333333 7.58333333333333  C 3.44618055555556 7.58333333333333  3.54383680555556 7.63693576388889  3.62630208333333 7.744140625  C 3.70876736111111 7.85134548611111  3.75 7.97829861111111  3.75 8.125  C 3.75 8.27170138888889  3.70876736111111 8.39865451388889  3.62630208333333 8.505859375  L 2.734375 9.66536458333333  C 3.04253472222222 10.0377604166667  3.39192708333333 10.3255208333333  3.78255208333333 10.5286458333333  C 4.17317708333333 10.7317708333333  4.57899305555556 10.8333333333333  5 10.8333333333333  C 5.58159722222222 10.8333333333333  6.12413194444445 10.6499565972222  6.62760416666667 10.283203125  C 7.13107638888889 9.91644965277778  7.53472222222222 9.41145833333333  7.83854166666667 8.76822916666667  C 7.88628472222222 8.67230902777778  8.00130208333333 8.34223090277778  8.18359375 7.77799479166667  C 8.21831597222222 7.64822048611111  8.28342013888889 7.58333333333333  8.37890625 7.58333333333333  L 9.62890625 7.58333333333333  C 9.68532986111111 7.58333333333333  9.73415798611111 7.61013454861111  9.775390625 7.66373697916667  Z M 9.87630208333333 0.702473958333334  C 9.95876736111111 0.809678819444444  10 0.936631944444444  10 1.08333333333333  L 10 4.875  C 10 5.02170138888889  9.95876736111111 5.14865451388889  9.87630208333333 5.255859375  C 9.79383680555556 5.36306423611111  9.69618055555556 5.41666666666667  9.58333333333333 5.41666666666667  L 6.66666666666667 5.41666666666667  C 6.55381944444445 5.41666666666667  6.45616319444445 5.36306423611111  6.37369791666667 5.255859375  C 6.29123263888889 5.14865451388889  6.25 5.02170138888889  6.25 4.875  C 6.25 4.72829861111111  6.29123263888889 4.60134548611111  6.37369791666667 4.494140625  L 7.27213541666667 3.326171875  C 6.62977430555556 2.55316840277778  5.87239583333333 2.16666666666667  5 2.16666666666667  C 4.41840277777778 2.16666666666667  3.87586805555556 2.35004340277778  3.37239583333333 2.716796875  C 2.86892361111111 3.08355034722222  2.46527777777778 3.58854166666667  2.16145833333333 4.23177083333333  C 2.11371527777778 4.32769097222222  1.99869791666667 4.65776909722222  1.81640625 5.22200520833333  C 1.78168402777778 5.35177951388889  1.71657986111111 5.41666666666667  1.62109375 5.41666666666667  L 0.325520833333333 5.41666666666667  C 0.269097222222222 5.41666666666667  0.220269097222222 5.38986545138889  0.179036458333333 5.33626302083333  C 0.137803819444444 5.28266059027778  0.1171875 5.21918402777778  0.1171875 5.14583333333333  L 0.1171875 5.08658854166667  C 0.399305555555556 3.57443576388889  0.985243055555556 2.3486328125  1.875 1.4091796875  C 2.76475694444444 0.4697265625  3.80642361111111 0  5 0  C 5.63368055555556 0  6.25 0.156575520833334  6.84895833333333 0.4697265625  C 7.44791666666667 0.782877604166666  7.97960069444445 1.22439236111111  8.44401041666667 1.79427083333333  L 9.29036458333333 0.702473958333334  C 9.37282986111111 0.595269097222221  9.47048611111111 0.541666666666666  9.58333333333333 0.541666666666666  C 9.69618055555556 0.541666666666666  9.79383680555556 0.595269097222221  9.87630208333333 0.702473958333334  Z " fill-rule="nonzero" fill="#5e5656" stroke="none" transform="matrix(1 0 0 1 1035 119 )" />
  </g>
</svg>