<?xml version="1.0" encoding="utf-8"?>
<svg version="1.1" xmlns:xlink="http://www.w3.org/1999/xlink" width="10px" height="13px" xmlns="http://www.w3.org/2000/svg">
  <g transform="matrix(1 0 0 1 -951 -119 )">
    <path d="M 6.1328125 7.97265625  C 6.65965544871795 7.28776041666667  6.92307692307692 6.46354166666667  6.92307692307692 5.5  C 6.92307692307692 4.53645833333333  6.65965544871795 3.71223958333333  6.1328125 3.02734375  C 5.60596955128205 2.34244791666667  4.97195512820513 2  4.23076923076923 2  C 3.48958333333333 2  2.85556891025641 2.34244791666667  2.32872596153846 3.02734375  C 1.80188301282051 3.71223958333333  1.53846153846154 4.53645833333333  1.53846153846154 5.5  C 1.53846153846154 6.46354166666667  1.80188301282051 7.28776041666667  2.32872596153846 7.97265625  C 2.85556891025641 8.65755208333333  3.48958333333333 9  4.23076923076923 9  C 4.97195512820513 9  5.60596955128205 8.65755208333333  6.1328125 7.97265625  Z M 9.77764423076923 11.296875  C 9.92588141025641 11.4895833333333  10 11.7239583333333  10 12  C 10 12.2708333333333  9.92387820512821 12.5052083333333  9.77163461538461 12.703125  C 9.61939102564103 12.9010416666667  9.43910256410257 13  9.23076923076923 13  C 9.01442307692308 13  8.83413461538461 12.9010416666667  8.68990384615385 12.703125  L 6.62860576923077 10.03125  C 5.91145833333333 10.6770833333333  5.11217948717949 11  4.23076923076923 11  C 3.65785256410256 11  3.10997596153846 10.85546875  2.58713942307692 10.56640625  C 2.06430288461538 10.27734375  1.61358173076923 9.88671875  1.23497596153846 9.39453125  C 0.856370192307692 8.90234375  0.555889423076923 8.31640625  0.333533653846154 7.63671875  C 0.111177884615385 6.95703125  0 6.24479166666667  0 5.5  C 0 4.75520833333333  0.111177884615385 4.04296875  0.333533653846154 3.36328125  C 0.555889423076923 2.68359375  0.856370192307692 2.09765625  1.23497596153846 1.60546875  C 1.61358173076923 1.11328125  2.06430288461538 0.72265625  2.58713942307692 0.43359375  C 3.10997596153846 0.14453125  3.65785256410256 0  4.23076923076923 0  C 4.8036858974359 0  5.3515625 0.14453125  5.87439903846154 0.43359375  C 6.39723557692308 0.72265625  6.84795673076923 1.11328125  7.2265625 1.60546875  C 7.60516826923077 2.09765625  7.90564903846154 2.68359375  8.12800480769231 3.36328125  C 8.35036057692308 4.04296875  8.46153846153846 4.75520833333333  8.46153846153846 5.5  C 8.46153846153846 6.64583333333333  8.21314102564103 7.68489583333333  7.71634615384615 8.6171875  L 9.77764423076923 11.296875  Z " fill-rule="nonzero" fill="#ffffff" stroke="none" transform="matrix(1 0 0 1 951 119 )" />
  </g>
</svg>