<?xml version="1.0" encoding="utf-8"?>
<svg version="1.1" xmlns:xlink="http://www.w3.org/1999/xlink" width="400px" height="213px" xmlns="http://www.w3.org/2000/svg">
  <g transform="matrix(1 0 0 1 -717 -338 )">
    <path d="M 718 341  A 2 2 0 0 1 720 339 L 1114 339  A 2 2 0 0 1 1116 341 L 1116 548  A 2 2 0 0 1 1114 550 L 720 550  A 2 2 0 0 1 718 548 L 718 341  Z " fill-rule="nonzero" fill="#ffffff" stroke="none" />
    <path d="M 717.5 341  A 2.5 2.5 0 0 1 720 338.5 L 1114 338.5  A 2.5 2.5 0 0 1 1116.5 341 L 1116.5 548  A 2.5 2.5 0 0 1 1114 550.5 L 720 550.5  A 2.5 2.5 0 0 1 717.5 548 L 717.5 341  Z " stroke-width="1" stroke="#2e2e2e" fill="none" stroke-opacity="0.262745098039216" />
  </g>
</svg>