<?xml version="1.0" encoding="utf-8"?>
<svg version="1.1" xmlns:xlink="http://www.w3.org/1999/xlink" width="241px" height="120px" xmlns="http://www.w3.org/2000/svg">
  <g transform="matrix(1 0 0 1 -1190 -175 )">
    <path d="M 1191 179  A 3 3 0 0 1 1194 176 L 1427 176  A 3 3 0 0 1 1430 179 L 1430 291  A 3 3 0 0 1 1427 294 L 1194 294  A 3 3 0 0 1 1191 291 L 1191 179  Z " fill-rule="nonzero" fill="#dbdbdb" stroke="none" />
    <path d="M 1190.5 179  A 3.5 3.5 0 0 1 1194 175.5 L 1427 175.5  A 3.5 3.5 0 0 1 1430.5 179 L 1430.5 291  A 3.5 3.5 0 0 1 1427 294.5 L 1194 294.5  A 3.5 3.5 0 0 1 1190.5 291 L 1190.5 179  Z " stroke-width="1" stroke-dasharray="9,4" stroke="#848484" fill="none" stroke-dashoffset="0.5" />
  </g>
</svg>