<?xml version="1.0" encoding="utf-8"?>
<svg version="1.1" xmlns:xlink="http://www.w3.org/1999/xlink" width="252px" height="100px" xmlns="http://www.w3.org/2000/svg">
  <g transform="matrix(1 0 0 1 -461 -118 )">
    <path d="M 462 122  A 3 3 0 0 1 465 119 L 709 119  A 3 3 0 0 1 712 122 L 712 214  A 3 3 0 0 1 709 217 L 465 217  A 3 3 0 0 1 462 214 L 462 122  Z " fill-rule="nonzero" fill="#dbdbdb" stroke="none" />
    <path d="M 461.5 122  A 3.5 3.5 0 0 1 465 118.5 L 709 118.5  A 3.5 3.5 0 0 1 712.5 122 L 712.5 214  A 3.5 3.5 0 0 1 709 217.5 L 465 217.5  A 3.5 3.5 0 0 1 461.5 214 L 461.5 122  Z " stroke-width="1" stroke-dasharray="9,4" stroke="#848484" fill="none" stroke-dashoffset="0.5" />
  </g>
</svg>